PathFileType	4	(X/Y/Z)	c:/Users/goper/Files/vsCode/490R/osim_files/C11/C11_Slow_04.trc
DataRate	CameraRate	NumFrames	NumMarkers	Units                	OrigDataRate	OrigDataStartFrame	OrigNumFrames
120.00	120.00	4	36	mm	120.0	684	1367
                Frame#	Time	LPSIS			LASIS			LTH1			LTH2			LTH3			LTH4			LLFE			LMFE			LSH1			LSH2			LSH3			LSH4			LLMAL			LMMAL			LCAL			LMTP5			LTOE			LMTP1			RPSIS			RASIS			RTH1			RTH2			RTH3			RTH4			RLFE			RMFE			RSH1			RSH2			RSH3			RSH4			RLMAL			RMMAL			RCAL			RMTP1			RTOE			RMTP5		
		X1	Y1	Z1	X2	Y2	Z2	X3	Y3	Z3	X4	Y4	Z4	X5	Y5	Z5	X6	Y6	Z6	X7	Y7	Z7	X8	Y8	Z8	X9	Y9	Z9	X10	Y10	Z10	X11	Y11	Z11	X12	Y12	Z12	X13	Y13	Z13	X14	Y14	Z14	X15	Y15	Z15	X16	Y16	Z16	X17	Y17	Z17	X18	Y18	Z18	X19	Y19	Z19	X20	Y20	Z20	X21	Y21	Z21	X22	Y22	Z22	X23	Y23	Z23	X24	Y24	Z24	X25	Y25	Z25	X26	Y26	Z26	X27	Y27	Z27	X28	Y28	Z28	X29	Y29	Z29	X30	Y30	Z30	X31	Y31	Z31	X32	Y32	Z32	X33	Y33	Z33	X34	Y34	Z34	X35	Y35	Z35	X36	Y36	Z36

684	5.69167	647.96582	969.56696	278.20065	466.45755	979.28168	328.21429	446.21072	583.87256	366.21295	424.25098	543.04437	363.90979	393.62741	606.18152	383.90686	378.59036	562.52826	375.28851	374.63287	492.72665	368.46451	341.41858	514.86371	269.62683	381.76489	376.13019	363.12491	364.68628	335.12207	361.44766	325.96756	395.29218	379.33755	315.64667	351.59671	375.04889	222.55376	97.59400	303.62088	195.40353	140.53075	219.14326	247.46104	49.02262	234.91728	100.67445	95.73936	345.19760	46.50519	163.43295	295.31076	65.36626	137.64403	241.19559	652.71417	986.01825	193.38942	496.63007	965.36603	95.82127	644.48383	622.91803	77.04778	647.91138	579.68512	84.25977	582.10681	610.92969	83.01775	596.00525	570.15454	87.60394	651.38849	491.15277	103.13192	666.29993	484.08514	218.20047	750.87927	406.51721	98.03790	762.02753	362.55463	103.40296	692.30414	384.30191	100.66505	712.37543	341.01245	104.59423	833.09009	105.99888	168.10388	801.75055	114.40813	260.41495	895.82465	76.13341	224.53723	682.91821	46.49207	238.40041	679.39716	56.35863	187.82590	725.82532	38.09983	128.62436
685	5.70000	638.06744	968.38123	278.16037	457.19601	977.82507	328.14520	434.02731	583.56598	365.12906	411.80286	542.96375	362.53903	381.35559	606.04840	382.50180	366.02924	562.45306	373.70398	362.00797	492.57147	366.54898	332.69852	513.78503	265.63461	369.80988	378.21930	364.55212	354.41348	334.65112	359.69244	314.49414	394.28650	377.04846	305.05817	350.70325	372.78055	221.14931	97.34190	301.00464	190.30977	137.42288	216.16217	246.43117	48.75098	233.09267	98.08392	91.35340	343.61566	39.82451	154.50711	292.31729	59.97789	128.82765	238.73726	643.03052	984.79590	193.48988	487.14606	963.94336	95.88594	636.05737	621.91895	77.22270	639.60065	578.67432	84.35049	573.76416	609.70953	83.02110	587.83746	569.00452	87.52309	643.43915	490.19769	103.24656	658.32312	483.12820	218.08238	744.15717	406.99121	97.89249	756.09833	363.26205	103.20543	685.89325	383.78195	100.67153	706.83765	340.99152	104.42490	831.93427	107.63819	167.64120	800.81378	116.12605	259.95847	894.87305	78.67079	224.12634	682.53076	46.42791	238.21344	679.31085	55.99878	187.66087	725.73938	38.14894	128.57938
686	5.70833	628.03595	967.27588	278.31409	447.07312	976.53284	328.22736	421.71689	583.27942	364.31372	399.12790	542.62305	361.40506	368.91144	605.97455	381.24313	353.44247	562.48041	372.18503	349.37381	492.43066	364.85162	323.91525	512.80615	261.96100	358.68030	377.50522	362.57370	344.32065	334.32156	358.14600	303.29535	393.51923	375.00104	294.66299	349.66660	370.61035	216.61287	97.60167	298.67371	183.95403	134.41493	212.56384	244.28311	49.11119	231.37085	94.61099	87.52983	341.80994	33.26000	146.88539	289.53107	54.24673	120.20853	236.89679	633.19958	983.64966	193.64696	476.85590	962.52698	96.18497	627.42145	620.79010	77.37492	631.15594	577.58447	84.40857	565.20038	608.43500	82.90893	579.32391	567.75958	87.38398	635.17072	489.04044	103.28752	649.88055	482.06418	218.08818	737.05640	407.51416	97.71943	750.34509	364.31317	102.74651	679.34888	383.31293	100.60210	700.97241	340.84650	104.35538	830.60419	109.40218	167.16165	798.79834	117.60955	259.34610	893.95605	81.54176	223.70377	682.13300	46.33252	238.04958	678.50354	55.84383	187.33749	725.60742	38.12407	128.52530
687	5.71667	617.79974	966.31445	278.67932	436.12384	975.19910	327.55908	409.31384	583.19067	363.69940	386.78387	542.59076	360.58505	356.63235	606.09906	380.07761	340.89670	562.80505	370.42719	337.32712	492.42831	363.47427	315.05927	511.93839	258.63626	350.41275	378.99130	362.83722	334.19684	334.08377	356.64743	292.88998	393.17133	373.41095	284.48346	349.07687	368.48053	210.93219	98.31059	296.73694	176.66884	132.18054	208.94516	241.15570	50.51745	229.99155	90.33698	84.04662	339.86884	26.06739	139.63605	286.96542	48.54035	112.93974	234.59410	623.11639	982.56042	194.00174	467.65186	961.08862	95.68554	618.51471	619.65649	77.43883	622.29010	576.42023	84.51028	556.28174	607.16296	82.76286	570.47778	566.48547	87.28629	626.52850	487.92712	103.31828	641.02429	480.99628	218.09009	729.61566	408.14960	97.59834	743.20367	364.84546	102.82176	672.22736	382.78152	100.66922	694.88904	340.92395	104.20224	829.13062	111.46531	166.52467	797.18121	119.64249	258.68259	892.76770	84.78615	223.19946	681.78461	46.24992	237.86678	677.98505	55.47809	187.09570	725.44598	38.08360	128.44878
